<svg width="159.946777" height="40.000000" viewBox="0 0 159.947 40" fill="none" xmlns="http://www.w3.org/2000/svg" xmlns:xlink="http://www.w3.org/1999/xlink">
	<desc>
			Created with Pixso.
	</desc>
	<defs/>
	<path id="myteam" d="M6.21387 18.2366L6.21387 29.5312L0 29.5312L0 8.19189L6.21387 8.19189L6.21387 11.2947C6.72217 10.1934 7.44922 9.323 8.39404 8.68311C8.97412 8.33496 9.57812 8.08643 10.2056 7.93677C10.6787 7.82422 11.1646 7.76782 11.6641 7.76782C13.8149 7.76782 15.5117 8.29907 16.7544 9.36108C17.4185 9.92847 17.9526 10.6475 18.3574 11.5178C19.3101 9.93896 20.4751 8.85278 21.8521 8.25928C22.6816 7.90186 23.5879 7.72314 24.5713 7.72314C26.5137 7.72314 28.1152 8.18652 29.377 9.11328C29.8145 9.43506 30.2109 9.81226 30.5669 10.2456C31.9478 11.927 32.6382 14.3154 32.6382 17.4106L32.6382 29.5312L26.4897 29.5312L26.4897 18.1472C26.4897 16.8379 26.1772 15.8035 25.5522 15.0447C25.2793 14.7275 24.9702 14.4768 24.626 14.2922C24.1465 14.0349 23.5977 13.9062 22.9795 13.9062C22.2896 13.9062 21.689 14.0571 21.1772 14.3591C20.9019 14.5217 20.6523 14.7278 20.4287 14.9778C19.7891 15.6919 19.4692 16.7783 19.4692 18.2366L19.4692 29.5312L13.2559 29.5312L13.2559 18.0134C13.1978 16.7336 12.856 15.7292 12.231 15C11.9561 14.6865 11.6465 14.4404 11.3013 14.2617C10.8442 14.0247 10.3257 13.9062 9.74561 13.9062C9.1543 13.9062 8.62207 14.0244 8.14893 14.2605C7.80762 14.4307 7.49658 14.6624 7.2168 14.9553C6.54785 15.6548 6.21387 16.7485 6.21387 18.2366ZM57.498 8.19189L44.6348 40L38.0723 40L43.0869 27.3438L35.0415 8.19189L41.6479 8.19189L46.248 20.2903L50.8921 8.19189L57.498 8.19189ZM68.3174 13.2144L68.3174 29.5312L62.1475 29.5312L62.1475 13.2144L58.3535 13.2144L58.3535 8.19189L62.1475 8.19189L62.1475 0L68.3174 0L68.3174 8.19189L72.6997 8.19189L72.6997 13.2144L68.3174 13.2144ZM95.2925 25.6472C93.3589 28.5491 90.1831 29.9927 85.7646 29.9778C82.6978 29.9778 80.1104 28.9434 78.0029 26.875C75.9243 24.7769 74.8853 22.0833 74.8853 18.7947C74.8853 15.5059 75.9243 12.8347 78.0029 10.7812C80.0815 8.72778 82.6543 7.70825 85.7212 7.72314C87.5166 7.72314 89.1357 8.08032 90.5776 8.79468C91.5981 9.30029 92.5303 9.98462 93.3735 10.8481C95.4087 12.9316 96.4331 15.6399 96.4478 18.9731C96.4478 19.0029 96.4189 19.6577 96.3604 20.9375L81.0771 20.9375C81.1934 22.0684 81.7603 22.9465 82.7778 23.5715C83.7949 24.1965 84.9434 24.509 86.2227 24.509C88.2139 24.509 89.7324 23.8394 90.7793 22.5L95.2925 25.6472ZM90.1904 16.9644L81.1646 16.9644C81.397 15.8035 81.9785 14.8958 82.9087 14.241C83.8096 13.5864 84.7837 13.2739 85.8301 13.3035C86.8765 13.3333 87.8286 13.6606 88.686 14.2856C89.5439 14.9106 90.0449 15.8035 90.1904 16.9644ZM113.088 29.2188C111.911 29.7246 110.785 29.9629 109.709 29.9331C106.846 29.9331 104.36 28.9062 102.252 26.8528C101.58 26.197 101.014 25.4783 100.556 24.6965C99.5796 23.0303 99.0913 21.0779 99.0913 18.8394C99.0913 15.5505 100.181 12.8794 102.362 10.8259C104.542 8.77222 106.991 7.73804 109.709 7.72314C110.813 7.72314 111.947 7.96875 113.11 8.45972C114.273 8.95093 115.167 9.65039 115.792 10.5581L115.792 8.19189L121.94 8.19189L121.94 29.5312L115.792 29.5312L115.792 27.0981C115.167 28.0059 114.266 28.7129 113.088 29.2188ZM110.712 23.9062C109.302 23.9062 108.088 23.4302 107.071 22.4778C106.024 21.5254 105.501 20.3198 105.501 18.8616C105.501 17.4182 106.024 16.2053 107.071 15.2231C108.205 14.2559 109.447 13.7722 110.799 13.7722C111.438 13.7722 112.037 13.8787 112.594 14.0916C113.216 14.3289 113.788 14.6987 114.309 15.2009C115.298 16.1533 115.792 17.3735 115.792 18.8616C115.792 20.3496 115.298 21.5625 114.309 22.5C113.321 23.4375 112.122 23.9062 110.712 23.9062ZM133.522 18.2366L133.522 29.5312L127.309 29.5312L127.309 8.19189L133.522 8.19189L133.522 11.2947C134.031 10.1934 134.758 9.323 135.703 8.68311C136.72 8.073 137.81 7.76782 138.973 7.76782C142.272 7.76782 144.503 9.01782 145.667 11.5178C147.192 8.98804 149.264 7.72314 151.88 7.72314C154.496 7.72314 156.495 8.56396 157.875 10.2456C159.256 11.927 159.947 14.3154 159.947 17.4106L159.947 29.5312L153.799 29.5312L153.799 18.1472C153.799 16.8379 153.486 15.8035 152.861 15.0447C152.588 14.7275 152.279 14.4768 151.935 14.2922C151.455 14.0349 150.906 13.9062 150.289 13.9062C149.228 13.9062 148.377 14.2634 147.738 14.9778C147.098 15.6919 146.778 16.7783 146.778 18.2366L146.778 29.5312L140.564 29.5312L140.564 18.0134C140.506 16.7336 140.165 15.7292 139.54 15C139.265 14.6865 138.955 14.4404 138.61 14.2617C138.153 14.0247 137.634 13.9062 137.055 13.9062C136.037 13.9062 135.194 14.2559 134.525 14.9553C133.857 15.6548 133.522 16.7485 133.522 18.2366Z" clip-rule="evenodd" fill="#FFFFFF" fill-opacity="1.000000" fill-rule="evenodd"/>
</svg>
